<svg width="62" height="85" viewBox="0 0 62 85" fill="none" xmlns="http://www.w3.org/2000/svg">
<g clip-path="url(#clip0_27_36)">
<path d="M61.8573 26.4806L61.6657 66.2814L61.6337 73.9796C61.6018 80.0967 55.7882 85.0319 48.633 84.9999L12.8889 84.8402C5.74969 84.7923 -0.0319637 79.8092 -2.08627e-05 73.6762L0.223579 26.1771C0.239551 21.226 4.07269 17.0415 9.31132 15.652L9.3273 13.0965V11.7869L52.8814 11.9945L52.8654 15.8596C58.0881 17.313 61.8733 21.5135 61.8573 26.4806Z" fill="url(#paint0_linear_27_36)"/>
<path d="M56.1236 1.77283V2.1242L56.0917 6.27678L56.0597 10.3495V10.8446C56.0597 11.6112 55.4209 12.2341 54.6543 12.2341H54.3189L52.2106 12.2182L49.8948 12.2022L47.7865 12.1862L45.4707 12.1702L43.3305 12.1383L41.0146 12.1223L38.9064 12.1064L36.5746 12.0904L34.4504 12.0744L32.1345 12.0584L30.0263 12.0265L27.7104 12.0105L25.6022 11.9945L23.2704 11.9786L21.1462 11.9626L18.8463 11.9466L16.7381 11.9307L14.4222 11.9147L12.298 11.8987L9.98214 11.8828L7.85794 11.8668H7.52254C6.75591 11.8668 6.13303 11.2279 6.13303 10.4613V10.4453V10.0939L6.19691 1.88463V1.38952C6.19691 0.622886 6.83577 0 7.61837 0H7.95377L12.3938 0.0319429L16.8339 0.0638858L18.9581 0.0798572L21.2739 0.0958286L23.3822 0.1118L27.8063 0.159714L30.1221 0.175686L32.2304 0.191657L34.5462 0.207629L36.6544 0.2236L38.9703 0.239572L41.0785 0.255543L43.3944 0.271514L45.5026 0.287486L47.8504 0.319429L49.9587 0.3354L52.2745 0.351372L54.3987 0.367343H54.7341C55.5167 0.383315 56.1236 1.0062 56.1236 1.77283Z" fill="url(#paint1_linear_27_36)"/>
<path d="M56.1236 2.14006L56.0917 6.27667L56.0597 10.3494L54.1591 10.3334L51.6357 10.3174L49.3198 10.3015H46.7803L44.4645 10.2855L41.941 10.2695L39.6251 10.2536H37.0857L34.7698 10.2376L32.2304 10.2216L29.9305 10.2056H27.391L25.0752 10.1897L22.5357 10.1737L20.2198 10.1577H17.6963L15.3805 10.1418L12.841 10.1258L10.5252 10.1098H8.00168L6.13303 10.0938L6.19691 1.88452L10.637 1.90049L15.4763 1.93244L17.7922 1.94841L20.3316 1.96438H22.6475L27.4868 1.99632L30.0263 2.01229H32.3422L34.8816 2.02826L37.1815 2.04424L39.721 2.06021H42.0368L44.5763 2.07618L46.8762 2.09215L49.4156 2.10812H51.7315L54.2709 2.12409L56.1236 2.14006Z" fill="url(#paint2_linear_27_36)"/>
<path d="M61.8105 34.8842L0.176758 34.5928L0.0475233 61.9199L61.6813 62.2114L61.8105 34.8842Z" fill="#F7F9FC"/>
<path d="M61.8214 34.8839L0.187653 34.5925L0.164397 39.5117L61.7982 39.8031L61.8214 34.8839Z" fill="#FBFCF7"/>
<path d="M24.2127 45.5805L20.2358 45.5645L20.2518 41.5716L14.7736 41.5557L14.7576 45.5326L10.7807 45.5166L10.7487 50.9788L14.7256 50.9948L14.7097 54.9876L20.1879 55.0036L20.2038 51.0267L24.1807 51.0427L24.2127 45.5805Z" fill="url(#paint3_linear_27_36)"/>
<path d="M51.2363 46.9059L31.5276 46.8101C31.0005 46.8101 30.5693 46.3788 30.5693 45.8518V45.4046C30.5693 44.8775 31.0005 44.4463 31.5276 44.4463L51.2363 44.5421C51.7634 44.5421 52.1946 44.9733 52.1946 45.5004V45.9476C52.1946 46.4747 51.7634 46.9059 51.2363 46.9059Z" fill="url(#paint4_linear_27_36)"/>
<path opacity="0.5" d="M51.2204 52.7675L31.5116 52.6716C30.9846 52.6716 30.5533 52.2404 30.5533 51.7133V51.2661C30.5533 50.7391 30.9846 50.3079 31.5116 50.3079L51.2204 50.4037C51.7474 50.4037 52.1787 50.8349 52.1787 51.362V51.8092C52.1787 52.3362 51.7474 52.7675 51.2204 52.7675Z" fill="url(#paint5_linear_27_36)"/>
<path opacity="0.08" d="M6.13303 1.77292V2.12429L6.16497 6.27686L6.19691 10.3336V10.8287C6.19691 11.5954 6.83577 12.2182 7.6024 12.2182H7.9378L10.062 12.2023L12.3779 12.1863L14.4861 12.1703L16.8019 12.1544L18.9102 12.1384L21.226 12.1224L23.3343 12.1064L25.6501 12.0905L27.7743 12.0745L30.0902 12.0585L32.1984 12.0426L34.5143 12.0266L36.6225 12.0106L38.9384 11.9946L41.0626 11.9787L43.3784 11.9627L45.4866 11.9467L47.8025 11.9308L49.9107 11.9148L52.2266 11.8988L54.3508 11.8828H54.6862C55.4528 11.8828 56.0757 11.244 56.0757 10.4774V10.4614V10.11C31.3679 11.1801 7.52254 0.367432 7.52254 0.367432C6.75591 0.383403 6.13303 1.00629 6.13303 1.77292Z" fill="#1A6FB5"/>
</g>
<defs>
<linearGradient id="paint0_linear_27_36" x1="-2.11894e-05" y1="11.3333" x2="57.1389" y2="90.1944" gradientUnits="userSpaceOnUse">
<stop stop-color="#6CBCFC"/>
<stop offset="1" stop-color="#458DFC"/>
</linearGradient>
<linearGradient id="paint1_linear_27_36" x1="-629.93" y1="-39.931" x2="-27.6041" y2="2.02206" gradientUnits="userSpaceOnUse">
<stop stop-color="#B0F4FF"/>
<stop offset="0.0525488" stop-color="#A9F2FF"/>
<stop offset="0.2879" stop-color="#8DE8FE"/>
<stop offset="0.5247" stop-color="#79E1FD"/>
<stop offset="0.7618" stop-color="#6DDDFC"/>
<stop offset="1" stop-color="#69DCFC"/>
</linearGradient>
<linearGradient id="paint2_linear_27_36" x1="6.13993" y1="6.11301" x2="56.1257" y2="6.11301" gradientUnits="userSpaceOnUse">
<stop stop-color="#B0F4FF"/>
<stop offset="0.0525488" stop-color="#A9F2FF"/>
<stop offset="0.2879" stop-color="#8DE8FE"/>
<stop offset="0.5247" stop-color="#79E1FD"/>
<stop offset="0.7618" stop-color="#6DDDFC"/>
<stop offset="1" stop-color="#69DCFC"/>
</linearGradient>
<linearGradient id="paint3_linear_27_36" x1="21.9779" y1="43.0955" x2="12.5974" y2="53.9126" gradientUnits="userSpaceOnUse">
<stop stop-color="#6CBCFC"/>
<stop offset="1" stop-color="#458DFC"/>
</linearGradient>
<linearGradient id="paint4_linear_27_36" x1="52.3847" y1="45.6709" x2="28.8866" y2="45.6709" gradientUnits="userSpaceOnUse">
<stop stop-color="#6CBCFC"/>
<stop offset="1" stop-color="#458DFC"/>
</linearGradient>
<linearGradient id="paint5_linear_27_36" x1="30.5519" y1="51.5321" x2="52.179" y2="51.5321" gradientUnits="userSpaceOnUse">
<stop stop-color="#6CBCFC"/>
<stop offset="1" stop-color="#458DFC"/>
</linearGradient>
<clipPath id="clip0_27_36">
<rect width="61.8574" height="85" fill="white"/>
</clipPath>
</defs>
</svg>
